PathFileType	4	(X/Y/Z)	SUBJ11_1_walk_RCNL2025.trc
DataRate	CameraRate	NumFrames	NumMarkers	Units	OrigDataRate	OrigDataStartFrame	OrigNumFrames
100	100	13	25	mm	100	56	443
Frame#	Time	R_Shoulder			L_Shoulder			C7			J_Notch			R_Elbow			L_Elbow			R_Wrist			L_Wrist			R_Asis			L_Asis			Sacral			Thoracic			Sternum			R_Thigh_Lateral			R_Knee_Lateral			R_Shank_Lateral			R_Ankle_Lateral			R_Heel			R_Toe			L_Thigh_Lateral			L_Knee_Lateral			L_Shank_Lateral			L_Ankle_Lateral			L_Heel			L_Toe		
		X1	Y1	Z1	X2	Y2	Z2	X3	Y3	Z3	X4	Y4	Z4	X5	Y5	Z5	X6	Y6	Z6	X7	Y7	Z7	X8	Y8	Z8	X9	Y9	Z9	X10	Y10	Z10	X11	Y11	Z11	X12	Y12	Z12	X13	Y13	Z13	X14	Y14	Z14	X15	Y15	Z15	X16	Y16	Z16	X17	Y17	Z17	X18	Y18	Z18	X19	Y19	Z19	X20	Y20	Z20	X21	Y21	Z21	X22	Y22	Z22	X23	Y23	Z23	X24	Y24	Z24	X25	Y25	Z25
56	0.55000000	-2810.566162	1446.244019	232.133072	-2804.245605	1431.153198	-166.500580	-2858.875732	1482.146118	31.177361	-2705.741211	1386.776855	42.960110	-2915.382080	1118.532593	317.351044	-2797.345703	1086.643799	-247.376694	-2904.037598	855.518768	316.098602	-2688.857910	846.322144	-210.586067	-2740.387207	967.048950	200.821915	-2752.746582	956.737366	-84.259552	-2913.597168	984.898315	48.001965	-2927.916992	1300.462769	32.379822	-2634.256836	1188.695679	51.299225	-2736.800537	625.924927	275.142975	-2705.042480	479.493744	220.897369	-2832.937012	320.642242	238.461655	-2964.034912	176.010025	158.002914	-3011.451416	199.730011	101.480461	-2872.261963	74.138931	134.538422	-2806.728271	608.495117	-147.537659	-2788.195557	456.631805	-58.455490	-2803.602539	243.377716	-85.871811	-2815.495361	52.217350	-10.144826	-2870.869141	46.140591	41.194340	-2680.687012	36.542557	21.588087
57	0.56000000	-2799.959961	1446.133179	232.146469	-2793.108154	1432.207275	-166.358292	-2848.173340	1482.447998	31.187622	-2695.181152	1386.828369	42.916248	-2908.046387	1119.264771	316.492523	-2781.060303	1088.024780	-248.251892	-2898.560547	856.171051	314.671982	-2667.415894	850.324188	-210.139313	-2729.281738	967.746399	200.082092	-2748.948975	955.488403	-83.257210	-2903.323975	985.212402	48.307667	-2917.548828	1300.919434	31.971838	-2623.818848	1188.797607	50.509888	-2720.061279	628.022461	274.742371	-2685.626953	481.512482	219.884811	-2807.156250	317.438385	238.907852	-2932.776611	167.300674	159.819824	-2981.739990	188.574692	103.579552	-2836.440186	69.975418	136.488144	-2800.964355	608.798767	-147.394287	-2786.089111	456.698669	-58.041168	-2802.988525	243.553497	-85.733742	-2815.522461	52.312637	-10.120154	-2870.792236	46.256413	41.301758	-2680.621094	36.503796	21.549681
58	0.57000000	-2789.337402	1445.728271	232.196060	-2781.999512	1432.890747	-166.206787	-2837.427246	1482.489136	31.229204	-2684.614990	1386.573853	42.897522	-2900.530029	1119.665405	315.682281	-2764.889893	1089.117188	-249.081314	-2892.758179	856.512390	313.262451	-2646.139526	854.136627	-209.689880	-2718.203613	968.054077	199.390869	-2743.182129	954.444641	-82.729729	-2893.060547	985.249939	48.660355	-2907.178955	1301.146851	31.661865	-2613.388184	1188.593872	49.733303	-2703.697266	629.782166	274.204163	-2666.795898	483.260284	218.783569	-2781.507568	314.034912	239.246475	-2900.845215	158.170242	161.511154	-2951.207031	176.772308	105.475632	-2799.940430	65.791359	138.497971	-2795.004150	608.936707	-147.346970	-2783.824463	456.709167	-57.697708	-2802.228027	243.693085	-85.614578	-2815.515137	52.390915	-10.075273	-2870.717041	46.397839	41.408829	-2680.536377	36.460464	21.507948
59	0.58000000	-2778.697754	1445.050903	232.275253	-2770.913330	1433.205933	-166.048141	-2826.624023	1482.283081	31.300611	-2674.033447	1386.016357	42.910290	-2892.774658	1119.742920	314.915955	-2748.813477	1089.929932	-249.857040	-2886.616455	856.545044	311.869308	-2625.067749	857.736572	-209.224739	-2707.145020	967.983215	198.740509	-2734.409668	953.899780	-82.972252	-2882.792725	985.010742	49.053490	-2896.809082	1301.161377	31.448792	-2602.975586	1188.093018	48.990707	-2687.763916	631.158325	273.507721	-2648.585693	484.703827	217.609711	-2756.013672	310.442810	239.479950	-2868.251221	148.757706	163.046387	-2919.861084	164.499237	107.168114	-2762.880371	61.695827	140.480728	-2788.920410	608.917603	-147.369202	-2781.415771	456.668579	-57.415535	-2801.352295	243.795731	-85.507240	-2815.477295	52.456501	-10.004704	-2870.646973	46.566044	41.522087	-2680.427002	36.404682	21.472099
60	0.59000000	-2768.036133	1444.127441	232.375885	-2759.840576	1433.166992	-165.881866	-2815.750732	1481.845703	31.399797	-2663.426758	1385.162720	42.955647	-2884.735107	1119.514160	314.189972	-2732.813965	1090.481934	-250.567764	-2880.118774	856.281677	310.494766	-2604.242554	861.112671	-208.725777	-2696.096436	967.552856	198.119415	-2722.133301	954.023621	-84.138695	-2872.505859	984.499451	49.475948	-2886.438965	1300.979126	31.328957	-2592.591553	1187.306641	48.307034	-2672.321289	632.114075	272.643005	-2631.023682	485.805298	216.379059	-2730.663818	306.656647	239.607391	-2835.006592	139.201447	164.396149	-2887.715088	151.934250	108.666191	-2725.348633	57.777790	142.261581	-2782.777100	608.751587	-147.435562	-2778.876709	456.586853	-57.188782	-2800.381836	243.862366	-85.408508	-2815.415283	52.512646	-9.907158	-2870.581055	46.758556	41.646976	-2680.290527	36.327442	21.449373
61	0.60000000	-2757.345215	1442.986816	232.488953	-2748.767334	1432.798706	-165.704605	-2804.796875	1481.194946	31.524240	-2652.785645	1384.022461	43.029995	-2876.380859	1119.002808	313.502045	-2716.882812	1090.799561	-251.203018	-2873.247070	855.742950	309.144547	-2583.700317	864.263855	-208.176422	-2685.049561	966.787842	197.516983	-2706.468506	954.828369	-86.203346	-2862.185791	983.725464	49.914494	-2876.064941	1300.613770	31.296585	-2582.242920	1186.248047	47.707058	-2657.421631	632.620361	271.616394	-2614.126221	486.525360	215.108780	-2705.422852	302.677094	239.626083	-2801.126221	129.641846	165.532425	-2854.786377	139.256805	109.980766	-2687.401855	54.136490	143.630951	-2776.616943	608.453247	-147.530502	-2776.215820	456.476929	-57.017788	-2799.322510	243.895172	-85.321388	-2815.333496	52.557167	-9.782998	-2870.514893	46.971916	41.785507	-2680.127930	36.223976	21.442484
62	0.61000000	-2746.616943	1441.658447	232.606247	-2737.674805	1432.133301	-165.508743	-2793.756104	1480.348267	31.670818	-2642.101807	1382.607666	43.129734	-2867.700195	1118.236816	312.851990	-2701.024658	1090.912109	-251.755783	-2865.983398	854.954376	307.827301	-2563.469604	867.197021	-207.564980	-2674.000488	965.716125	196.929504	-2688.131104	956.158142	-88.964592	-2851.821289	982.702942	50.355125	-2865.678467	1300.075562	31.343508	-2571.928955	1184.928955	47.205673	-2643.101807	632.656921	270.454437	-2597.899170	486.829102	213.816498	-2680.250000	298.524902	239.531891	-2766.633057	120.224426	166.430878	-2821.099609	126.645737	111.115822	-2649.086670	50.913757	144.444061	-2770.458984	608.043213	-147.652969	-2773.427246	456.349243	-56.907047	-2798.167725	243.896545	-85.254837	-2815.232910	52.583733	-9.633566	-2870.443115	47.203693	41.935154	-2679.947266	36.097851	21.448166
63	0.62000000	-2735.842285	1440.169067	232.722549	-2726.538818	1431.206055	-165.283844	-2782.626465	1479.320312	31.836264	-2631.367920	1380.936035	43.255920	-2858.698242	1117.245483	312.241425	-2685.256592	1090.846558	-252.222443	-2858.312134	853.943237	306.552994	-2543.579346	869.923431	-206.886337	-2662.949707	964.365295	196.363342	-2668.336914	957.714539	-92.084076	-2841.402832	981.448669	50.783802	-2855.269531	1299.372314	31.458344	-2561.641846	1183.360107	46.807579	-2629.381104	632.213867	269.202362	-2582.340820	486.690857	212.516617	-2655.117432	294.245087	239.318192	-2731.566895	111.102959	167.074326	-2786.688232	114.277046	112.062874	-2610.476562	48.283344	144.661499	-2764.297607	607.544678	-147.813980	-2770.485352	456.206329	-56.860775	-2796.900879	243.866226	-85.221008	-2815.113037	52.589672	-9.464318	-2870.360596	47.453411	42.089581	-2679.761963	35.959484	21.458294
64	0.63000000	-2725.012451	1438.541016	232.837372	-2715.335205	1430.054077	-165.020691	-2771.409912	1478.122437	32.017944	-2620.577637	1379.030518	43.415150	-2849.395020	1116.055786	311.673248	-2669.610352	1090.624023	-252.603989	-2850.221191	852.736023	305.331711	-2524.064819	872.455353	-206.141861	-2651.899414	962.759888	195.833801	-2648.576904	959.122131	-95.158577	-2830.923584	979.980896	51.187634	-2844.825684	1298.508789	31.626982	-2551.368164	1181.554077	46.511425	-2616.268311	631.290833	267.915680	-2567.444336	486.095428	211.214981	-2630.024902	289.907928	238.976639	-2695.996582	102.441330	167.456345	-2751.598633	102.322868	112.802361	-2571.679932	46.418816	144.315628	-2758.104248	606.974792	-148.028992	-2767.343994	456.040100	-56.879990	-2795.491943	243.798492	-85.231110	-2814.972656	52.581535	-9.287065	-2870.263428	47.722744	42.240318	-2679.589111	35.823925	21.462353
65	0.64000000	-2714.120361	1436.791382	232.954712	-2704.043457	1428.713989	-164.713425	-2760.110352	1476.763428	32.214134	-2609.723145	1376.917969	43.615955	-2839.820557	1114.691528	311.152069	-2654.131836	1090.258423	-252.908432	-2841.703735	851.355927	304.173676	-2504.964355	874.802673	-205.336601	-2640.849854	960.919556	195.361450	-2630.298096	960.013062	-97.799637	-2820.379150	978.318848	51.556828	-2834.331299	1297.487183	31.834673	-2541.093262	1179.528931	46.310715	-2603.770752	629.892944	266.646637	-2553.200928	485.039093	209.903839	-2605.008057	285.606079	238.500336	-2660.025635	94.409332	167.582047	-2715.900146	90.951851	113.313599	-2532.833252	45.472752	143.471283	-2751.827637	606.338013	-148.309937	-2763.938965	455.831726	-56.962204	-2793.897217	243.682220	-85.291435	-2814.809814	52.569511	-9.115084	-2870.148438	48.015320	42.378654	-2679.451172	35.712486	21.448732
66	0.65000000	-2703.162842	1434.932617	233.080811	-2692.646973	1427.219727	-164.359070	-2748.730957	1475.250488	32.423531	-2598.795410	1374.627808	43.864025	-2830.010498	1113.172241	310.684540	-2638.874268	1089.755859	-253.150864	-2832.757446	849.821808	303.089493	-2486.308960	876.969543	-204.475624	-2629.796875	958.859985	194.967270	-2614.616699	960.097900	-99.694656	-2809.766602	976.482849	51.886841	-2823.768799	1296.308350	32.067169	-2530.800293	1177.307129	46.196941	-2591.908936	628.023743	265.429840	-2539.597412	483.532684	208.558441	-2580.139160	281.445953	237.885284	-2623.794922	87.170448	167.466171	-2679.700928	80.330650	113.589180	-2494.099854	45.564690	142.213989	-2745.395996	605.625732	-148.660782	-2760.193604	455.553375	-57.101288	-2792.061768	243.503616	-85.401146	-2814.618896	52.559071	-8.956939	-2870.011719	48.336857	42.496803	-2679.370117	35.649353	21.408384
67	0.66000000	-2692.141846	1432.972900	233.222290	-2681.130615	1425.598022	-163.956482	-2737.272217	1473.590576	32.644611	-2587.785645	1372.189087	44.160839	-2820.002197	1111.513306	310.278900	-2623.889648	1089.114258	-253.350449	-2823.384399	848.147522	302.089447	-2468.117920	878.954407	-203.562256	-2618.733643	956.595276	194.668121	-2602.159180	959.208130	-100.652618	-2799.083740	974.494324	52.179531	-2813.120361	1294.974609	32.310715	-2520.471191	1174.911011	46.164879	-2580.721436	625.679871	264.270996	-2526.614258	481.605438	207.136093	-2555.522461	277.538086	237.128693	-2587.484131	80.867546	167.131317	-2643.171387	70.623291	113.642029	-2455.676025	46.771873	140.652924	-2738.723389	604.818848	-149.075928	-2756.023682	455.170776	-57.286030	-2789.926270	243.248428	-85.552666	-2814.392090	52.550175	-8.815952	-2869.850586	48.695217	42.588310	-2679.350586	35.643890	21.344818
68	0.67000000	-2681.063477	1430.916626	233.385696	-2669.479980	1423.865845	-163.506653	-2725.731201	1471.791260	32.875732	-2576.685303	1369.629517	44.506153	-2809.830566	1109.725098	309.943939	-2609.219971	1088.324097	-253.526932	-2813.588989	846.342041	301.182892	-2450.402954	880.752411	-202.599510	-2607.650879	954.139832	194.473358	-2593.013672	957.313904	-100.636185	-2788.328613	972.373596	52.442635	-2802.371094	1293.490356	32.552696	-2510.088623	1172.358521	46.215443	-2570.262451	622.850647	263.141388	-2514.218994	479.307983	205.577866	-2531.286133	273.985565	236.225677	-2551.315430	75.611046	166.606384	-2606.551514	61.979515	113.495483	-2417.794678	49.120678	138.921722	-2731.720947	603.890686	-149.539856	-2751.347656	454.646973	-57.499611	-2787.437500	242.903137	-85.733665	-2814.123047	52.541336	-8.692665	-2869.662598	49.099384	42.648861	-2679.366455	35.678890	21.277834
